<svg xmlns="http://www.w3.org/2000/svg" width="137" height="92" viewBox="0 0 137 92">
  <g fill="#7E4E77" fill-rule="evenodd">
    <path d="M39.7392 48.7142L39.7392 49.5612 50.5232 49.5612 50.5232 48.6992 49.1412 48.6322C47.3452 48.5192 46.7102 47.5772 46.7102 45.0362 46.7102 42.8382 47.2242 40.2512 48.1222 37.9352L48.9732 35.6952 60.1082 35.6952 62.3552 41.5342C63.7472 45.1202 64.5882 47.2862 64.0422 48.1112 63.8252 48.4402 63.3272 48.6052 62.4752 48.6312L60.8352 48.6962 60.8352 49.5612 73.4032 49.5612 73.4032 48.7252 72.6852 48.6342C70.9202 48.4202 70.4732 47.9162 67.5322 40.7382L56.9902 14.9562 55.9472 14.9562 47.2412 37.6742C43.2782 47.9792 42.3972 48.4602 40.6152 48.6332L39.7392 48.7142zM49.3512 34.7662L54.5172 21.2452 59.7272 34.7662 49.3512 34.7662zM89.8151 50.2052C92.2551 50.2052 94.7301 49.4782 96.6091 48.2092 97.3941 47.6692 97.7111 47.4812 98.1851 47.4812 98.7511 47.4812 99.7801 47.9292 101.4631 50.0662L101.5731 50.2052 102.2151 50.2052 102.2151 40.9752C102.2151 33.9652 102.7491 33.9432 104.7391 33.8612L106.1281 33.7952 106.1281 32.9332 91.0841 32.9332 91.0841 33.7952 92.4741 33.8612C96.5961 34.0472 96.9771 34.2572 96.9771 40.9752L96.9771 43.5992C96.9771 46.2732 96.8551 46.7012 95.8911 47.4122 94.3421 48.5272 91.9401 49.2752 89.9151 49.2752 80.7241 49.2752 79.7311 37.5482 79.7311 32.5062 79.7311 27.4632 80.7241 15.7372 89.9151 15.7372 94.3011 15.7372 97.8181 18.5302 99.3221 23.2102L99.9491 25.1462 100.7301 25.1462 100.7301 14.8082 100.0921 14.8082 99.9821 14.9412C99.0651 16.0502 98.0161 17.1842 97.1951 17.1842 96.7141 17.1842 96.2801 16.8802 95.8121 16.5532 94.0751 15.3952 92.0571 14.8082 89.8151 14.8082 78.8801 14.8082 73.8991 24.0082 73.8991 32.5562 73.8991 41.0562 78.8801 50.2052 89.8151 50.2052M123.0856 48.6991L121.6956 48.6321C119.7076 48.5511 119.1736 48.5301 119.1736 41.5201L119.1736 23.4931C119.1736 16.4831 119.7076 16.4621 121.6976 16.3791L123.0856 16.3141 123.0856 15.4521 110.0226 15.4521 110.0226 16.3141 111.4126 16.3801C113.4006 16.4621 113.9346 16.4831 113.9346 23.4931L113.9346 41.5201C113.9346 48.5301 113.4006 48.5511 111.4096 48.6331L110.0226 48.6991 110.0226 49.5611 123.0856 49.5611 123.0856 48.6991zM33.6816 57.5628L35.0716 57.6298C37.0596 57.7108 37.5936 57.7318 37.5936 64.7418L37.5936 82.7688C37.5936 89.7788 37.0596 89.7998 35.0686 89.8818L33.6816 89.9478 33.6816 90.8098 46.7446 90.8098 46.7446 89.9478 45.3536 89.8808C43.3656 89.7998 42.8316 89.7788 42.8316 82.7688L42.8316 64.7418C42.8316 57.7318 43.3656 57.7108 45.3556 57.6278L46.7446 57.5628 46.7446 56.7008 33.6816 56.7008 33.6816 57.5628zM68.1696 82.7687L68.1696 64.7417C68.1696 57.8927 68.3916 57.6297 70.1316 57.6297L71.4186 57.6297C72.5626 57.6297 76.0416 57.6297 78.5986 65.4497L79.2256 67.3857 80.0056 67.3857 80.0056 56.7007 51.0946 56.7007 51.0946 67.3857 51.8756 67.3857 52.5026 65.4507C55.0596 57.6297 58.5386 57.6297 59.6816 57.6297L60.9696 57.6297C62.7096 57.6297 62.9316 57.8927 62.9316 64.7417L62.9316 82.7687C62.9316 89.7787 62.3976 89.7997 60.4066 89.8817L59.0186 89.9477 59.0186 90.8107 72.0816 90.8107 72.0816 89.9477 70.6916 89.8807C68.7036 89.7997 68.1696 89.7787 68.1696 82.7687M103.1113 81.9868L92.5693 56.2048 91.5263 56.2048 82.8203 78.9228C78.8573 89.2278 77.9763 89.7088 76.1943 89.8828L75.3183 89.9628 75.3183 90.8098 86.1023 90.8098 86.1023 89.9478 84.7203 89.8818C82.9243 89.7678 82.2893 88.8258 82.2893 86.2848 82.2893 84.0878 82.8033 81.4998 83.7013 79.1838L84.5523 76.9438 95.6873 76.9438 97.9343 82.7828C99.3263 86.3688 100.1673 88.5358 99.6213 89.3598 99.4033 89.6888 98.9063 89.8538 98.0543 89.8808L96.4143 89.9448 96.4143 90.8098 108.9823 90.8098 108.9823 89.9738 108.2643 89.8838C106.4993 89.6688 106.0523 89.1648 103.1113 81.9868zM84.9303 76.0148L90.0963 62.4948 95.3063 76.0148 84.9303 76.0148zM135.4864 78.1434L134.8594 80.0804C131.9544 88.9934 129.7674 89.8804 125.1044 89.8804L121.1434 89.8804C119.4034 89.8804 119.1804 89.6174 119.1804 82.7684L119.1804 64.7424C119.1804 57.7324 119.7144 57.7114 121.7044 57.6284L123.0934 57.5624 123.0934 56.7004 110.0304 56.7004 110.0304 57.5624 111.4214 57.6294C113.4084 57.7114 113.9424 57.7324 113.9424 64.7424L113.9424 82.7684C113.9424 89.7784 113.4084 89.7994 111.4184 89.8814L110.0304 89.9474 110.0304 90.8104 136.2664 90.8104 136.2664 78.1434 135.4864 78.1434z"/>
    <path d="M46.5403,16.0007 C50.6913,5.4377 54.9143,0.9297 60.6613,0.9297 C61.7543,0.9297 64.0103,1.3857 64.0103,2.7927 C64.0103,3.2047 63.8083,3.5197 63.5533,3.9187 C63.2273,4.4287 62.8213,5.0637 62.8213,6.0607 C62.8213,7.8217 64.1503,9.1507 65.9113,9.1507 C67.7863,9.1507 69.1493,7.7687 69.1493,5.8637 C69.1493,2.0137 64.9033,-0.0003 60.7103,-0.0003 C52.1683,-0.0003 48.7283,7.1257 45.4133,15.7357 L34.8033,43.3857 L26.8523,23.3127 C25.5103,19.9317 24.6243,17.6987 25.1523,16.8937 C25.3653,16.5697 25.8573,16.4067 26.7023,16.3807 L28.3413,16.3167 L28.3413,15.4517 L15.7743,15.4517 L15.7743,16.2877 L16.4913,16.3777 C18.2563,16.5927 18.7043,17.0967 21.6443,24.2747 L32.1873,50.0567 L19.0293,84.6347 L11.0783,64.5617 C9.7363,61.1807 8.8493,58.9467 9.3783,58.1417 C9.5913,57.8187 10.0823,57.6557 10.9283,57.6297 L12.5673,57.5657 L12.5673,56.7007 L0.0003,56.7007 L0.0003,57.5367 L0.7173,57.6267 C2.4823,57.8417 2.9293,58.3457 5.8703,65.5237 L16.4123,91.3057 L17.4553,91.3057 L32.9533,50.7887 C33.0583,50.5167 33.1523,50.2787 33.2533,50.0187 L46.5403,16.0007 Z"/>
  </g>
</svg>
