<svg xmlns="http://www.w3.org/2000/svg" xmlns:xlink="http://www.w3.org/1999/xlink" width="137" height="92" viewBox="0 0 137 92">
  <defs>
    <polygon id="logo-a" points=".03 .395 26.266 .395 26.266 34.505 .03 34.505"/>
    <polygon id="logo-c" points="0 .694 69.149 .694 69.149 92 0 92"/>
  </defs>
  <g fill="none" fill-rule="evenodd" transform="translate(0 -1)">
    <path fill="#FEFEFE" d="M39.7392 49.7142L39.7392 50.5612 50.5232 50.5612 50.5232 49.6992 49.1412 49.6322C47.3452 49.5192 46.7102 48.5772 46.7102 46.0362 46.7102 43.8382 47.2242 41.2512 48.1222 38.9352L48.9732 36.6952 60.1082 36.6952 62.3552 42.5342C63.7472 46.1202 64.5882 48.2862 64.0422 49.1112 63.8252 49.4402 63.3272 49.6052 62.4752 49.6312L60.8352 49.6962 60.8352 50.5612 73.4032 50.5612 73.4032 49.7252 72.6852 49.6342C70.9202 49.4202 70.4732 48.9162 67.5322 41.7382L56.9902 15.9562 55.9472 15.9562 47.2412 38.6742C43.2782 48.9792 42.3972 49.4602 40.6152 49.6332L39.7392 49.7142zM49.3512 35.7662L54.5172 22.2452 59.7272 35.7662 49.3512 35.7662zM89.8151 51.2052C92.2551 51.2052 94.7301 50.4782 96.6091 49.2092 97.3941 48.6692 97.7111 48.4812 98.1851 48.4812 98.7511 48.4812 99.7801 48.9292 101.4631 51.0662L101.5731 51.2052 102.2151 51.2052 102.2151 41.9752C102.2151 34.9652 102.7491 34.9432 104.7391 34.8612L106.1281 34.7952 106.1281 33.9332 91.0841 33.9332 91.0841 34.7952 92.4741 34.8612C96.5961 35.0472 96.9771 35.2572 96.9771 41.9752L96.9771 44.5992C96.9771 47.2732 96.8551 47.7012 95.8911 48.4122 94.3421 49.5272 91.9401 50.2752 89.9151 50.2752 80.7241 50.2752 79.7311 38.5482 79.7311 33.5062 79.7311 28.4632 80.7241 16.7372 89.9151 16.7372 94.3011 16.7372 97.8181 19.5302 99.3221 24.2102L99.9491 26.1462 100.7301 26.1462 100.7301 15.8082 100.0921 15.8082 99.9821 15.9412C99.0651 17.0502 98.0161 18.1842 97.1951 18.1842 96.7141 18.1842 96.2801 17.8802 95.8121 17.5532 94.0751 16.3952 92.0571 15.8082 89.8151 15.8082 78.8801 15.8082 73.8991 25.0082 73.8991 33.5562 73.8991 42.0562 78.8801 51.2052 89.8151 51.2052M123.0856 49.6991L121.6956 49.6321C119.7076 49.5511 119.1736 49.5301 119.1736 42.5201L119.1736 24.4931C119.1736 17.4831 119.7076 17.4621 121.6976 17.3791L123.0856 17.3141 123.0856 16.4521 110.0226 16.4521 110.0226 17.3141 111.4126 17.3801C113.4006 17.4621 113.9346 17.4831 113.9346 24.4931L113.9346 42.5201C113.9346 49.5301 113.4006 49.5511 111.4096 49.6331L110.0226 49.6991 110.0226 50.5611 123.0856 50.5611 123.0856 49.6991zM33.6816 58.5628L35.0716 58.6298C37.0596 58.7108 37.5936 58.7318 37.5936 65.7418L37.5936 83.7688C37.5936 90.7788 37.0596 90.7998 35.0686 90.8818L33.6816 90.9478 33.6816 91.8098 46.7446 91.8098 46.7446 90.9478 45.3536 90.8808C43.3656 90.7998 42.8316 90.7788 42.8316 83.7688L42.8316 65.7418C42.8316 58.7318 43.3656 58.7108 45.3556 58.6278L46.7446 58.5628 46.7446 57.7008 33.6816 57.7008 33.6816 58.5628zM68.1696 83.7687L68.1696 65.7417C68.1696 58.8927 68.3916 58.6297 70.1316 58.6297L71.4186 58.6297C72.5626 58.6297 76.0416 58.6297 78.5986 66.4497L79.2256 68.3857 80.0056 68.3857 80.0056 57.7007 51.0946 57.7007 51.0946 68.3857 51.8756 68.3857 52.5026 66.4507C55.0596 58.6297 58.5386 58.6297 59.6816 58.6297L60.9696 58.6297C62.7096 58.6297 62.9316 58.8927 62.9316 65.7417L62.9316 83.7687C62.9316 90.7787 62.3976 90.7997 60.4066 90.8817L59.0186 90.9477 59.0186 91.8107 72.0816 91.8107 72.0816 90.9477 70.6916 90.8807C68.7036 90.7997 68.1696 90.7787 68.1696 83.7687M103.1113 82.9868L92.5693 57.2048 91.5263 57.2048 82.8203 79.9228C78.8573 90.2278 77.9763 90.7088 76.1943 90.8828L75.3183 90.9628 75.3183 91.8098 86.1023 91.8098 86.1023 90.9478 84.7203 90.8818C82.9243 90.7678 82.2893 89.8258 82.2893 87.2848 82.2893 85.0878 82.8033 82.4998 83.7013 80.1838L84.5523 77.9438 95.6873 77.9438 97.9343 83.7828C99.3263 87.3688 100.1673 89.5358 99.6213 90.3598 99.4033 90.6888 98.9063 90.8538 98.0543 90.8808L96.4143 90.9448 96.4143 91.8098 108.9823 91.8098 108.9823 90.9738 108.2643 90.8838C106.4993 90.6688 106.0523 90.1648 103.1113 82.9868zM84.9303 77.0148L90.0963 63.4948 95.3063 77.0148 84.9303 77.0148z"/>
    <g transform="translate(110 57.306)">
      <mask id="logo-b" fill="#fff">
        <use xlink:href="#logo-a"/>
      </mask>
      <path fill="#FEFEFE" d="M25.4864,21.8376 L24.8594,23.7746 C21.9544,32.6876 19.7674,33.5746 15.1044,33.5746 L11.1434,33.5746 C9.4034,33.5746 9.1804,33.3116 9.1804,26.4626 L9.1804,8.4366 C9.1804,1.4266 9.7144,1.4056 11.7044,1.3226 L13.0934,1.2566 L13.0934,0.3946 L0.0304,0.3946 L0.0304,1.2566 L1.4214,1.3236 C3.4084,1.4056 3.9424,1.4266 3.9424,8.4366 L3.9424,26.4626 C3.9424,33.4726 3.4084,33.4936 1.4184,33.5756 L0.0304,33.6416 L0.0304,34.5046 L26.2664,34.5046 L26.2664,21.8376 L25.4864,21.8376 Z" mask="url(#logo-b)"/>
    </g>
    <g transform="translate(0 .306)">
      <mask id="logo-d" fill="#fff">
        <use xlink:href="#logo-c"/>
      </mask>
      <path fill="#FEFEFE" d="M46.5403,16.6949 C50.6913,6.1319 54.9143,1.6239 60.6613,1.6239 C61.7543,1.6239 64.0103,2.0799 64.0103,3.4869 C64.0103,3.8989 63.8083,4.2139 63.5533,4.6129 C63.2273,5.1229 62.8213,5.7579 62.8213,6.7549 C62.8213,8.5159 64.1503,9.8449 65.9113,9.8449 C67.7863,9.8449 69.1493,8.4629 69.1493,6.5579 C69.1493,2.7079 64.9033,0.6939 60.7103,0.6939 C52.1683,0.6939 48.7283,7.8199 45.4133,16.4299 L34.8033,44.0799 L26.8523,24.0069 C25.5103,20.6259 24.6243,18.3929 25.1523,17.5879 C25.3653,17.2639 25.8573,17.1009 26.7023,17.0749 L28.3413,17.0109 L28.3413,16.1459 L15.7743,16.1459 L15.7743,16.9819 L16.4913,17.0719 C18.2563,17.2869 18.7043,17.7909 21.6443,24.9689 L32.1873,50.7509 L19.0293,85.3289 L11.0783,65.2559 C9.7363,61.8749 8.8493,59.6409 9.3783,58.8359 C9.5913,58.5129 10.0823,58.3499 10.9283,58.3239 L12.5673,58.2599 L12.5673,57.3949 L0.0003,57.3949 L0.0003,58.2309 L0.7173,58.3209 C2.4823,58.5359 2.9293,59.0399 5.8703,66.2179 L16.4123,91.9999 L17.4553,91.9999 L32.9533,51.4829 C33.0583,51.2109 33.1523,50.9729 33.2533,50.7129 L46.5403,16.6949 Z" mask="url(#logo-d)"/>
    </g>
  </g>
</svg>
